<?xml version="1.0" standalone="no"?>
<!DOCTYPE svg PUBLIC "-//W3C//DTD SVG 20010904//EN"
 "http://www.w3.org/TR/2001/REC-SVG-20010904/DTD/svg10.dtd">
<svg version="1.0" xmlns="http://www.w3.org/2000/svg"
 width="449.000000pt" height="557.000000pt" viewBox="0 0 449.000000 557.000000"
 preserveAspectRatio="xMidYMid meet">

<g transform="translate(0.000000,557.000000) scale(0.100000,-0.100000)"
fill="#000000" stroke="none">
<path d="M0 2785 l0 -2785 2245 0 2245 0 0 2785 0 2785 -2245 0 -2245 0 0
-2785z m4087 653 c-3 -1870 -3 -1873 -24 -1958 -60 -239 -166 -428 -348 -619
-518 -542 -1438 -737 -2235 -475 -619 204 -1058 656 -1135 1171 -13 84 -15
364 -15 1926 l0 1827 1880 0 1880 0 -3 -1872z"/>
<path d="M390 3456 c0 -1223 3 -1819 11 -1872 59 -424 367 -807 834 -1035 747
-364 1713 -265 2317 238 219 182 374 418 446 680 l27 98 3 1843 2 1842 -1820
0 -1820 0 0 -1794z m2967 1548 c31 -20 58 -63 47 -73 -5 -5 -19 -12 -31 -16
-17 -5 -23 -2 -23 9 0 22 -40 46 -77 46 -19 0 -43 -9 -59 -24 -24 -20 -28 -32
-32 -88 -4 -61 -2 -67 26 -99 39 -44 93 -47 128 -5 37 42 32 56 -21 56 -41 0
-45 2 -45 25 0 24 2 25 75 25 l75 0 0 -90 0 -90 -30 0 c-16 0 -30 4 -30 9 0 5
-18 2 -39 -6 -52 -20 -102 -11 -145 27 -46 41 -59 78 -54 155 5 77 25 110 89
143 48 25 104 24 146 -4z m-2107 -9 c0 -24 -3 -25 -55 -25 l-55 0 0 -145 0
-145 -30 0 -30 0 0 145 0 145 -55 0 c-52 0 -55 1 -55 25 l0 25 140 0 140 0 0
-25z m240 -91 c0 -149 12 -174 81 -174 63 0 73 22 77 166 l4 124 30 0 30 0 -4
-132 c-4 -154 -13 -177 -83 -204 -75 -28 -155 -1 -181 63 -9 21 -14 74 -14
153 l0 120 30 0 30 0 0 -116z m656 83 c45 -53 25 -148 -37 -169 -11 -4 -9 -13
12 -44 14 -21 34 -51 43 -66 l18 -28 -35 0 c-32 0 -38 5 -76 65 -36 56 -45 65
-71 65 l-30 0 0 -65 0 -65 -30 0 -30 0 0 171 0 171 106 -4 c102 -3 107 -4 130
-31z m284 -137 l0 -170 -30 0 -30 0 0 170 0 170 30 0 30 0 0 -170z m349 59
c41 -60 78 -112 83 -115 4 -3 8 47 8 110 l0 116 25 0 25 0 0 -171 0 -170 -27
3 c-23 2 -42 24 -108 122 l-80 118 -3 -121 -3 -121 -29 0 -30 0 0 170 0 170
33 0 c30 -1 38 -9 106 -111z m847 -726 c-5 -5 -1038 -184 -1042 -180 -1 1 233
79 520 172 l521 171 3 -79 c2 -44 1 -82 -2 -84z m-1371 -232 c-3 -5 -20 -14
-38 -20 -36 -12 -1411 -291 -1433 -291 -11 0 -14 19 -14 80 0 44 1 80 3 80 14
3 1439 158 1460 159 16 0 26 -3 22 -8z m214 -54 c-13 -49 -100 -141 -183 -194
-37 -25 -110 -85 -161 -134 -82 -80 -100 -103 -144 -192 -55 -112 -143 -240
-239 -346 -34 -38 -62 -76 -62 -83 0 -38 -36 -124 -95 -230 -59 -106 -107
-240 -91 -255 2 -3 156 108 340 246 185 138 353 259 374 269 83 42 279 97 382
108 56 5 68 3 89 -14 24 -19 25 -20 8 -46 -10 -14 -78 -71 -151 -126 -73 -54
-161 -129 -195 -166 -83 -91 -165 -260 -221 -453 -48 -169 -98 -281 -166 -370
-99 -132 -285 -248 -559 -351 -77 -29 -167 -65 -201 -80 -33 -15 -78 -31 -100
-34 -92 -16 -202 38 -251 122 -27 46 -28 51 -31 222 -3 169 -3 176 20 209 13
19 64 64 115 100 50 37 104 78 118 91 39 37 82 127 199 423 150 377 144 365
238 465 68 72 100 118 182 262 54 96 110 190 123 208 40 53 398 286 567 368
100 49 113 46 95 -19z m495 -322 c-36 -55 -139 -96 -274 -110 -67 -7 -343 -99
-415 -138 -31 -18 -41 -30 -47 -60 -16 -79 -71 -152 -140 -188 -23 -12 -68
-59 -122 -128 -60 -76 -110 -126 -164 -167 -42 -31 -92 -69 -111 -83 l-33 -25
35 70 c19 39 43 97 53 130 13 46 30 73 75 123 76 83 190 250 236 346 l35 75
92 29 c170 55 250 72 372 81 67 5 170 20 230 34 115 26 148 32 177 35 16 1 16
0 1 -24z m41 -490 c88 -8 164 -15 169 -15 20 0 -18 -29 -67 -51 -45 -20 -68
-24 -167 -24 -143 0 -172 7 -165 38 4 13 1 35 -4 51 l-11 27 43 -6 c23 -3 114
-12 202 -20z m-95 -439 c96 -24 168 -46 160 -49 -61 -22 -179 -14 -286 20 -46
14 -66 14 -234 -1 -101 -10 -193 -22 -204 -28 -20 -11 -20 -11 -2 18 57 89 75
95 276 88 93 -4 149 -13 290 -48z m282 -606 l3 -51 47 30 c45 29 48 29 58 11
16 -30 13 -35 -40 -60 -27 -13 -50 -26 -50 -30 0 -4 23 -19 50 -34 54 -29 57
-33 38 -59 -12 -15 -17 -14 -60 13 l-47 29 -3 -52 c-3 -48 -5 -52 -30 -55 -28
-3 -28 -2 -28 52 0 31 -2 56 -5 56 -2 0 -26 -14 -52 -30 -44 -28 -49 -29 -60
-13 -20 26 -17 31 44 62 l57 28 -44 23 c-67 33 -71 38 -58 65 l10 23 48 -29
c26 -16 50 -29 54 -29 3 0 6 23 6 50 0 49 1 50 29 50 29 0 30 -2 33 -50z
m-340 -560 l3 -51 47 30 c45 29 48 29 58 11 16 -30 13 -35 -40 -60 -27 -13
-50 -26 -50 -30 0 -4 23 -19 50 -34 54 -29 57 -33 38 -59 -12 -15 -17 -14 -60
13 l-47 29 -3 -52 c-3 -48 -5 -52 -30 -55 -28 -3 -28 -2 -28 52 0 31 -2 56 -5
56 -2 0 -26 -14 -52 -30 -44 -28 -49 -29 -60 -13 -20 26 -17 31 44 62 l57 28
-44 23 c-67 33 -71 38 -58 65 l10 23 48 -29 c26 -16 50 -29 54 -29 3 0 6 23 6
50 0 49 1 50 29 50 29 0 30 -2 33 -50z m660 0 l3 -51 47 30 c45 29 48 29 58
11 16 -30 13 -35 -40 -60 -27 -13 -50 -26 -50 -30 0 -4 23 -19 50 -34 54 -29
57 -33 38 -59 -12 -15 -17 -14 -60 13 l-47 29 -3 -52 c-3 -48 -5 -52 -30 -55
-28 -3 -28 -2 -28 52 0 31 -2 56 -5 56 -2 0 -26 -14 -52 -30 -44 -28 -49 -29
-60 -13 -20 26 -17 31 44 62 l57 28 -44 23 c-67 33 -71 38 -58 65 l10 23 48
-29 c26 -16 50 -29 54 -29 3 0 6 23 6 50 0 49 1 50 29 50 29 0 30 -2 33 -50z"/>
<path d="M1972 4918 l3 -53 39 -3 c47 -4 96 14 97 37 4 54 -17 71 -88 71 l-54
0 3 -52z"/>
</g>
</svg>
